<?xml version="1.0" encoding="UTF-8" standalone="no"?>
<svg width="80px" height="80px" viewBox="0 0 80 80" version="1.1" xmlns="http://www.w3.org/2000/svg" xmlns:xlink="http://www.w3.org/1999/xlink">
    <!-- Generator: Sketch 39.1 (31720) - http://www.bohemiancoding.com/sketch -->
    <title>Fill 427</title>
    <desc>Created with Sketch.</desc>
    <defs></defs>
    <g id="Page-1" stroke="none" stroke-width="1" fill="none" fill-rule="evenodd">
        <path d="M9.22666667,3.07555556 C4.96888889,3.07555556 3.07555556,4.96888889 3.07555556,9.22666667 L3.07555556,74.7466667 L15.8311111,61.9822222 C16.1155556,61.6977778 16.5155556,61.5377778 16.9155556,61.5377778 L70.7644444,61.5377778 C75.0222222,61.5377778 76.9155556,59.6355556 76.9155556,55.3866667 L76.9155556,9.22666667 C76.9155556,4.96888889 75.0222222,3.07555556 70.7644444,3.07555556 L9.22666667,3.07555556 Z M1.53777778,80 C1.33333333,80 1.13777778,79.9644444 0.942222222,79.8844444 C0.373333333,79.6444444 0,79.0844444 0,78.4622222 L0,9.22666667 C0,3.27111111 3.27111111,0 9.22666667,0 L70.7644444,0 C76.72,0 80,3.27111111 80,9.22666667 L80,55.3866667 C80,61.3333333 76.72,64.6133333 70.7644444,64.6133333 L17.5555556,64.6133333 L2.62222222,79.5466667 C2.32888889,79.84 1.93777778,80 1.53777778,80 L1.53777778,80 Z" id="Fill-427" fill="#94A4A4"></path>
    </g>
</svg>