<?xml version="1.0" encoding="UTF-8"?>
<svg width="51px" height="51px" viewBox="0 0 51 51" version="1.1" xmlns="http://www.w3.org/2000/svg" xmlns:xlink="http://www.w3.org/1999/xlink">
    <!-- Generator: Sketch 41 (35326) - http://www.bohemiancoding.com/sketch -->
    <title>Artboard</title>
    <desc>Created with Sketch.</desc>
    <defs></defs>
    <g id="Page-1" stroke="none" stroke-width="1" fill="none" fill-rule="evenodd">
        <g id="Artboard" fill="#F86913">
            <path d="M31.8350505,39.007777 C35.5785558,39.007777 38.6066036,35.8417172 38.6066036,31.9360296 C38.6066036,28.0265684 35.5785558,24.8605087 31.8350505,24.8605087 C28.0951585,24.8605087 25.0634974,28.0265684 25.0634974,31.9360296 C25.0634974,35.8417172 28.0951585,39.007777 31.8350505,39.007777 L31.8350505,39.007777 Z M31.8350505,22.5057753 C36.8251865,22.5057753 40.8649924,26.7246726 40.8649924,31.9360296 C40.8649924,34.1134033 40.1495349,36.1134172 38.960719,37.7096547 L42.7945599,41.7134562 C43.0005249,41.9210048 43.1233813,42.2153465 43.1233813,42.5474243 C43.1233813,43.1927118 42.6211156,43.7247909 41.9959936,43.7247909 C41.6852393,43.7247909 41.3997789,43.5889409 41.1974273,43.3813923 L37.3671998,39.3775909 C35.8351088,40.6191089 33.9199951,41.366284 31.8350505,41.366284 C26.8449145,41.366284 22.8051085,37.1436131 22.8051085,31.9360296 C22.8051085,26.7246726 26.8449145,22.5057753 31.8350505,22.5057753 L31.8350505,22.5057753 Z M17.1573297,10.7132404 C17.7824517,10.7132404 18.2883308,11.2415459 18.2883308,11.890607 C18.2883308,12.5434418 17.7824517,13.0717473 17.1573297,13.0717473 C16.5358211,13.0717473 16.029942,12.5434418 16.029942,11.890607 C16.029942,11.2415459 16.5358211,10.7132404 17.1573297,10.7132404 L17.1573297,10.7132404 Z M12.6441654,10.7132404 C13.265674,10.7132404 13.7751665,11.2415459 13.7751665,11.890607 C13.7751665,12.5434418 13.265674,13.0717473 12.6441654,13.0717473 C12.0190434,13.0717473 11.5167777,12.5434418 11.5167777,11.890607 C11.5167777,11.2415459 12.0190434,10.7132404 12.6441654,10.7132404 L12.6441654,10.7132404 Z M40.8649924,8.35850699 L9.25838885,8.35850699 L9.25838885,15.4302543 L40.8649924,15.4302543 L40.8649924,8.35850699 Z M40.8649924,24.8605087 L40.8649924,17.7887613 L9.25838885,17.7887613 L9.25838885,24.8605087 L22.8195622,24.8605087 C22.295616,25.5888156 21.8439382,26.3775004 21.4934363,27.2190157 L9.25838885,27.2190157 L9.25838885,34.290763 L20.7707518,34.290763 C20.9333558,35.1134102 21.1790685,35.8983214 21.4934363,36.64927 L9.25838885,36.64927 C8.0117582,36.64927 7,35.5964325 7,34.290763 L7,8.35850699 C7,7.05661113 8.0117582,6 9.25838885,6 L40.8649924,6 C42.1116231,6 43.1233813,7.05661113 43.1233813,8.35850699 L43.1233813,31.9360296 C43.1233813,29.2794074 42.2742271,26.8303337 40.8505388,24.8605087 L40.8649924,24.8605087 Z M16.029942,30.7548893 C16.029942,30.1020546 16.5358211,29.5775226 17.1573297,29.5775226 C17.7824517,29.5775226 18.2883308,30.1020546 18.2883308,30.7548893 C18.2883308,31.4039504 17.7824517,31.9360296 17.1573297,31.9360296 C16.5358211,31.9360296 16.029942,31.4039504 16.029942,30.7548893 L16.029942,30.7548893 Z M11.5167777,30.7548893 C11.5167777,30.1020546 12.0190434,29.5775226 12.6441654,29.5775226 C13.265674,29.5775226 13.7751665,30.1020546 13.7751665,30.7548893 C13.7751665,31.4039504 13.265674,31.9360296 12.6441654,31.9360296 C12.0190434,31.9360296 11.5167777,31.4039504 11.5167777,30.7548893 L11.5167777,30.7548893 Z M16.029942,21.324635 C16.029942,20.6718003 16.5358211,20.1472683 17.1573297,20.1472683 C17.7824517,20.1472683 18.2883308,20.6718003 18.2883308,21.324635 C18.2883308,21.9736961 17.7824517,22.5057753 17.1573297,22.5057753 C16.5358211,22.5057753 16.029942,21.9736961 16.029942,21.324635 L16.029942,21.324635 Z M11.5167777,21.324635 C11.5167777,20.6718003 12.0190434,20.1472683 12.6441654,20.1472683 C13.265674,20.1472683 13.7751665,20.6718003 13.7751665,21.324635 C13.7751665,21.9736961 13.265674,22.5057753 12.6441654,22.5057753 C12.0190434,22.5057753 11.5167777,21.9736961 11.5167777,21.324635 L11.5167777,21.324635 Z" id="Fill-613"></path>
        </g>
    </g>
</svg>