<?xml version="1.0" encoding="UTF-8"?>
<svg width="51px" height="51px" viewBox="0 0 51 51" version="1.1" xmlns="http://www.w3.org/2000/svg" xmlns:xlink="http://www.w3.org/1999/xlink">
    <!-- Generator: Sketch 41 (35326) - http://www.bohemiancoding.com/sketch -->
    <title>Artboard</title>
    <desc>Created with Sketch.</desc>
    <defs></defs>
    <g id="Page-1" stroke="none" stroke-width="1" fill="none" fill-rule="evenodd">
        <g id="Artboard" fill="#F86913">
            <g id="Group" transform="translate(4.000000, 1.000000)">
                <path d="M16.9603487,6.70194041 C16.2159838,6.70194041 15.6125423,7.33590709 15.6125423,8.10949738 C15.6125423,8.88686129 16.2159838,9.51705435 16.9603487,9.51705435 C17.7047137,9.51705435 18.3081552,8.88686129 18.3081552,8.10949738 C18.3081552,7.33590709 17.7047137,6.70194041 16.9603487,6.70194041" id="Fill-618"></path>
                <path d="M21.2848924,39.8380202 L21.2848924,30.6266353 C21.2848924,30.3738033 21.2198508,30.124745 21.093381,29.9096492 L17.498026,23.6454546 L20.8874159,23.524699 C21.6281675,23.4982838 22.2099284,22.8492226 22.1846345,22.0756324 C22.1593405,21.3284573 21.555899,20.7209059 20.8404414,20.7209059 L20.8404414,20.486942 L20.836828,20.486942 L20.7970804,20.7209059 L8.13564915,21.1624184 L4.53306726,19.5020295 L4.51500015,19.3737267 C4.12475055,16.97371 3.63693856,13.9472739 3.30450372,11.8189572 L3.28643661,11.7019752 L3.36954532,11.6151822 L6.55297024,8.29063072 C6.610785,8.22647933 6.65775948,8.16610155 6.70112055,8.10195016 L6.75532188,8.01893072 L6.84927086,8.00006266 L11.4527707,7.17741542 C11.669576,7.13967931 11.8791545,7.04156542 12.0525988,6.90194181 L16.4176127,3.33210563 L20.5838885,3.33210563 L20.5585945,3.59625841 C20.3706966,5.60004595 20.3201087,9.35101546 22.0581647,11.9132975 C22.1340466,12.0265058 22.2207687,12.1246197 22.3219445,12.2038655 C22.8242102,12.6189627 25.4403279,14.6869017 27.6589691,14.6869017 C27.6951033,14.6831281 27.752918,14.6869017 27.8035059,14.6831281 C30.9363429,14.5548253 32.4865011,12.0944308 33.2380929,10.0566808 L33.39347,9.63026269 L41.0141773,21.419024 L40.891321,21.5586476 L22.7085807,41.6418063 L21.2848924,39.8380202 Z M23.2614343,3.54342786 L23.2867282,3.33210563 L27.6806496,3.33210563 L31.2796181,6.60382652 L31.2651644,6.7321293 C31.073653,8.24534739 30.3473551,11.7661266 27.6987167,11.879335 L27.6951033,11.879335 C26.6580511,11.879335 24.945289,10.7510252 24.1792435,10.1585683 L24.1250422,10.0906433 C22.9109323,8.07176127 23.1168974,4.8415501 23.2614343,3.54342786 L23.2614343,3.54342786 Z M22.6399257,45.1663592 C23.0048813,45.1663592 23.3626101,45.0078675 23.6155497,44.7286203 L43.7061768,22.5322393 C44.1434009,22.0492171 44.2012157,21.332231 43.8471003,20.7850573 L33.7945599,5.23023205 C33.7801062,5.21891122 33.7620391,5.19626955 33.7475854,5.1774015 C33.7078377,5.12079733 33.6572498,5.05664594 33.5994351,5.00004177 L33.556074,4.95475844 L29.0645903,0.871711144 C28.822491,0.649068085 28.5081233,0.524538916 28.1829153,0.524538916 L15.9550947,0.524538916 C15.6587941,0.524538916 15.3661069,0.630200029 15.127621,0.82642781 L10.6072299,4.48305704 L3.61164461,5.73589595 L3.02627022,5.79250012 C2.96122862,5.80004734 2.89618702,5.81136818 2.83114542,5.83023623 C1.30266785,6.23023902 0.240321737,7.65666404 0.240321737,9.2981849 C0.240321737,9.44912935 0.240321737,9.9057363 2.00728517,20.7171323 C2.08316704,21.1775129 2.37585423,21.5699685 2.79139778,21.7624226 L7.33346943,23.8605504 C7.49968685,23.9397963 7.6875848,23.9775324 7.8827096,23.9775324 L14.4266171,23.7511157 L18.6001197,31.0153172 L18.6001197,40.3399105 C18.6001197,40.6682146 18.7085224,40.9814244 18.9036472,41.2304827 L21.6028735,44.653148 C21.8449728,44.9625841 22.206315,45.1512647 22.5929512,45.1625855 L22.6399257,45.4040967 L22.6399257,45.4040967 L22.6399257,45.1663592 Z" id="Fill-616"></path>
            </g>
        </g>
    </g>
</svg>