<?xml version="1.0" encoding="UTF-8" standalone="no"?>
<svg width="37px" height="79px" viewBox="0 0 37 79" version="1.1" xmlns="http://www.w3.org/2000/svg" xmlns:xlink="http://www.w3.org/1999/xlink">
    <!-- Generator: Sketch 39.1 (31720) - http://www.bohemiancoding.com/sketch -->
    <title>Group 2</title>
    <desc>Created with Sketch.</desc>
    <defs></defs>
    <g id="Page-1" stroke="none" stroke-width="1" fill="none" fill-rule="evenodd">
        <g id="Group-2" fill="#f76913">
            <path d="M18.4613779,68.3781538 C5.36014709,68.3781538 1.28107017,59.9715385 0.126300939,56.3430769 C-0.330622138,54.908 0.4918394,53.3750769 1.95399325,52.9266154 C3.4078394,52.5026154 4.96968555,53.2935385 5.42660863,54.7204615 C6.61460863,58.4712308 9.84630094,62.9313846 18.4613779,62.9313846 L18.5693779,62.9313846 C23.911224,62.9069231 27.7410702,61.8061538 29.6518394,59.7350769 C30.6570702,58.6424615 31.1638394,57.2318462 31.1555317,55.544 C31.1389163,51.4426154 31.1223009,48.1973846 17.1404548,40.8018462 C3.4078394,33.5449231 2.83460863,27.772 3.28322402,25.5378462 C3.39953171,17.2535385 7.79430094,11.6273846 15.3958394,10.0618462 C22.7481471,8.56153846 31.3133779,11.4235385 33.4069163,16.0956923 C34.0299932,17.4736923 33.3903009,19.08 31.9863009,19.6833846 C30.5823009,20.3030769 28.9373779,19.6670769 28.3226086,18.2890769 C27.5998394,16.6664615 21.9921471,14.2855385 16.5423009,15.3944615 C11.4247625,16.4463077 8.83276248,19.9687692 8.83276248,25.8721538 C8.83276248,26.1575385 8.78291632,26.4510769 8.69153171,26.7283077 L8.6998394,26.7283077 C8.78291632,26.7283077 9.2398394,30.4383077 19.7823009,36.0073846 C34.2210702,43.6556923 36.6718394,48.1973846 36.7050702,55.5113846 C36.7216856,58.5690769 35.7081471,61.2924615 33.7641471,63.3961538 C30.7318394,66.674 25.6309163,68.3536923 18.5943009,68.3781538 L18.4613779,68.3781538 Z" id="Fill-424"></path>
            <path d="M18.3558702,13.6495385 C16.8189471,13.6495385 15.5811009,12.4346154 15.5811009,10.9261538 L15.5811009,2.72338462 C15.5811009,1.22307692 16.8189471,0 18.3558702,0 C19.8927932,0 21.1306394,1.22307692 21.1306394,2.72338462 L21.1306394,10.9261538 C21.1306394,12.4346154 19.8927932,13.6495385 18.3558702,13.6495385" id="Fill-425"></path>
            <path d="M18.3558702,78.8313846 C16.8189471,78.8313846 15.5811009,77.6164615 15.5811009,76.108 L15.5811009,67.9133846 C15.5811009,66.4130769 16.8189471,65.19 18.3558702,65.19 C19.8927932,65.19 21.1306394,66.4130769 21.1306394,67.9133846 L21.1306394,76.108 C21.1306394,77.6164615 19.8927932,78.8313846 18.3558702,78.8313846" id="Fill-426"></path>
        </g>
    </g>
</svg>