<?xml version="1.0" encoding="UTF-8"?>
<svg width="75px" height="75px" viewBox="0 0 75 75" version="1.1" xmlns="http://www.w3.org/2000/svg" xmlns:xlink="http://www.w3.org/1999/xlink">
    <!-- Generator: Sketch 41.2 (35397) - http://www.bohemiancoding.com/sketch -->
    <title>Slice</title>
    <desc>Created with Sketch.</desc>
    <defs></defs>
    <g id="Page-1" stroke="none" stroke-width="1" fill="none" fill-rule="evenodd">
        <path d="M69.6859738,33.3682065 C69.8039562,34.2843054 70.4285691,34.8256365 70.8866185,35.2142845 C71.5736926,35.8111368 72.226066,36.3663482 71.8304779,38.7190566 C71.2683263,42.0989062 70.3452874,42.4597936 68.6727129,43.1052269 L68.1383219,43.3134312 C67.5969908,43.5355157 65.4455465,44.0490863 57.2145372,44.0490863 C52.9602297,44.0490863 49.136211,43.9033433 49.136211,43.9033433 C48.5393587,43.840882 48.0535487,44.1670687 47.7898233,44.6320583 C46.1797101,47.4428161 48.60182,52.2037541 50.54506,56.0277728 C51.0655707,57.061854 51.5236201,57.9571325 51.7942857,58.616446 C53.4113389,62.5445669 53.1476135,67.8190754 51.1974334,70.3661078 C50.4895388,71.3030271 49.5109787,71.7749568 48.2964537,71.7749568 C46.9084251,71.7749568 45.7910621,71.1364636 45.5273367,70.8102769 C44.7986217,59.6782879 42.9247832,57.741988 39.6837365,55.2851775 L39.1701659,54.8965295 C37.3310281,53.4738002 32.4035267,48.067429 31.7233927,46.3254531 C30.9391566,44.326692 30.2659627,42.5916563 29.6899309,41.0925855 C26.2129193,32.1328611 25.6785283,30.7517727 22.8400099,30.7517727 L21.0355728,30.7517727 L21.0355728,6.3085898 L35.9499397,3.68521582 C36.0332214,3.67133554 44.6320583,2.8870994 52.0233104,2.8870994 C57.304759,2.8870994 59.7476893,3.28962768 60.8719924,3.62969468 C63.0234367,4.26818782 65.6537508,5.49659309 65.9938178,7.68273807 C66.2297827,9.1956892 66.2089622,9.97992534 66.2020221,10.549017 C66.1881418,11.2013905 66.1742615,11.812123 66.5976102,12.638 C67.0417794,13.5055179 67.7774345,13.9566272 68.4298079,14.3591554 C69.4083681,14.9629479 70.2550655,15.4834586 70.5049106,17.5377408 C70.7408755,19.5434421 70.2828261,20.0847732 69.8386569,20.5983438 C69.4500089,21.0563932 68.8600968,21.7434674 68.9572588,22.8747106 C69.0683011,24.1655772 70.0746218,24.7346689 70.6714741,25.0747359 C71.4418299,25.5189051 72.0595026,25.8659122 72.1080836,27.6634092 C72.1636048,29.5441879 71.5459321,30.1341 70.8866185,30.7587129 C70.3383472,31.2722834 69.5124702,32.0565196 69.6859738,33.3682065 Z M18.2456354,32.6672521 L2.8870994,32.6672521 L2.8870994,5.22592752 L18.1484734,5.22592752 L18.1484734,32.1953224 C18.1484734,32.3618858 18.1970544,32.5215091 18.2456354,32.6672521 Z M72.7673972,33.0281396 C72.7673972,33.0281396 72.7396366,33.000379 72.7188162,32.9864987 C72.7743373,32.9448578 72.8229183,32.8962768 72.8229183,32.8962768 C73.6973763,32.0634597 75.092345,30.7448326 74.995183,27.5731873 C74.8910809,24.1655772 73.0727635,23.1314959 72.1011435,22.5693444 C72.0664428,22.5554641 72.0386822,22.5346436 72.0386822,22.5346436 C72.0386822,22.5346436 72.0248019,22.4860627 72.0317421,22.4721824 C72.8714993,21.5005624 73.7251369,20.2027557 73.3642495,17.1907337 C72.9478409,13.755363 71.1434038,12.6449402 69.9427591,11.9023449 C69.6165724,11.7010807 69.2348645,11.4651159 69.1585229,11.3193729 C69.0821814,11.1597496 69.0752412,11.1458693 69.0821814,10.6114783 C69.0960616,9.96604505 69.1168821,9.0013652 68.8392764,7.23856893 C68.3881671,4.3306491 65.9174763,2.12368369 61.7048096,0.867517849 C59.7754499,0.284545855 56.6038046,0 52.0233104,0 C44.4932554,0 35.769496,0.805056564 35.5682318,0.825876992 L20.4456607,3.48395168 C20.3068578,2.83157826 19.7516464,2.33882812 19.0645723,2.33882812 L1.4435497,2.33882812 C0.64543328,2.33882812 0,2.9842614 0,3.78237782 L0,34.1108018 C0,34.9089182 0.64543328,35.5543515 1.4435497,35.5543515 L19.0645723,35.5543515 C19.8626887,35.5543515 20.508122,34.9089182 20.508122,34.1108018 C20.508122,33.9442384 20.459541,33.7846151 20.41096,33.6388721 L22.8400099,33.6388721 C23.6450665,33.6388721 24.1586371,34.8117563 26.9971555,42.140547 C27.5801275,43.6396179 28.2533213,45.3746536 29.0375574,47.3803548 C30.0646986,49.9967887 35.6306931,55.8056882 37.4073697,57.1798365 L37.9417607,57.5893049 C40.4610325,59.490904 41.9878639,60.6429677 42.6610578,71.1295235 C42.7929205,73.2115663 45.735541,74.655116 48.2964537,74.655116 C50.399317,74.655116 52.2453949,73.7528975 53.4946207,72.1150238 C56.0763538,68.7351742 56.4927623,62.454345 54.4593005,57.5199035 C54.1469941,56.7495476 53.6681242,55.8126283 53.1129128,54.7160858 C52.0094301,52.5438211 50.0870105,48.7545031 50.1217113,46.8251434 C51.5860814,46.8667843 54.3066174,46.9292456 57.2145372,46.9292456 C66.8960364,46.9292456 68.6449524,46.221351 69.2209842,45.9923263 L69.7137344,45.7980023 C72.0525625,44.8888436 73.9055806,43.8270017 74.6759365,39.1979265 C75.3421902,35.235105 73.6696158,33.7984954 72.7673972,33.0281396 Z" id="down-g" fill="#94A4A4"></path>
    </g>
</svg>