<?xml version="1.0" encoding="UTF-8" standalone="no"?>
<svg width="78px" height="78px" viewBox="0 0 78 78" version="1.1" xmlns="http://www.w3.org/2000/svg" xmlns:xlink="http://www.w3.org/1999/xlink">
    <!-- Generator: Sketch 39.1 (31720) - http://www.bohemiancoding.com/sketch -->
    <title>money</title>
    <desc>Created with Sketch.</desc>
    <defs></defs>
    <g id="Page-1" stroke="none" stroke-width="1" fill="none" fill-rule="evenodd">
        <g id="money">
            <g id="Group">
                <g>
                    <path d="M0,38.7914286 C0,60.18 17.4,77.5828571 38.7885714,77.5828571 C60.18,77.5828571 77.58,60.18 77.58,38.7914286 C77.58,17.4028571 60.18,0 38.7885714,0 C17.4,0 0,17.4028571 0,38.7914286" id="Fill-439" fill="#F86913"></path>
                    <path d="M39.6597143,55.2 C32.3597143,55.2 28.174,51.9457143 28.174,46.2771429 C28.174,45.5885714 28.7311429,45.0314286 29.4197143,45.0314286 C30.1082857,45.0314286 30.6654286,45.5885714 30.6654286,46.2771429 C30.6654286,50.5457143 33.6911429,52.7114286 39.6597143,52.7114286 C44.0082857,52.7114286 48.654,51.02 48.654,46.2771429 C48.654,42.4085714 45.1425714,41.2514286 39.3568571,39.8057143 C34.1168571,38.4942857 28.174,37.0085714 28.174,30.9142857 C28.174,25.2457143 32.3597143,21.9914286 39.6597143,21.9914286 C46.9597143,21.9914286 51.1454286,25.2457143 51.1454286,30.9142857 C51.1454286,31.6028571 50.5882857,32.16 49.8997143,32.16 C49.2111429,32.16 48.654,31.6028571 48.654,30.9142857 C48.654,26.6457143 45.6282857,24.4828571 39.6597143,24.4828571 C33.6911429,24.4828571 30.6654286,26.6457143 30.6654286,30.9142857 C30.6654286,34.7828571 34.1768571,35.94 39.9625714,37.3885714 C45.2025714,38.6971429 51.1454286,40.1828571 51.1454286,46.2771429 C51.1454286,51.6971429 46.6368571,55.2 39.6597143,55.2" id="Fill-440" fill="#FFFFFF"></path>
                    <path d="M39.6597143,60.32 C38.9711429,60.32 38.414,59.7628571 38.414,59.0742857 L38.414,18.1142857 C38.414,17.4285714 38.9711429,16.8714286 39.6597143,16.8714286 C40.3482857,16.8714286 40.9054286,17.4285714 40.9054286,18.1142857 L40.9054286,59.0742857 C40.9054286,59.7628571 40.3482857,60.32 39.6597143,60.32" id="Fill-441" fill="#FFFFFF"></path>
                </g>
            </g>
        </g>
    </g>
</svg>