<?xml version="1.0" encoding="UTF-8" standalone="no"?>
<svg width="81px" height="81px" viewBox="0 0 81 81"  version="1.1" xmlns="http://www.w3.org/2000/svg" xmlns:xlink="http://www.w3.org/1999/xlink">
    <!-- Generator: Sketch 39.1 (31720) - http://www.bohemiancoding.com/sketch -->
    <title>Fill 429</title>
    <desc>Created with Sketch.</desc>
    <defs></defs>
    <g id="Page-1" stroke="none" stroke-width="1" fill="none" fill-rule="evenodd">
        <path d="M64.7490361,34.180661 L64.5550932,56.1755482 C64.5286465,56.7750081 64.7137738,57.3039433 65.2162622,57.7182758 L72.4362272,64.9735031 L50.0534542,65.0352122 L30.0068115,64.9646875 L7.58877612,64.9206096 L14.9497905,57.6653823 C15.3993854,57.2686809 15.5668815,56.7397457 15.5845127,56.1314703 L15.7872712,34.1365831 C15.8842426,20.8338637 27.0535901,9.96424613 40.4709121,10.0259552 C54.0645458,9.91135261 64.8548232,20.8691261 64.7490361,34.180661 M39.9243458,74.8205128 C36.3540334,74.7852504 33.4184433,72.5196448 32.5016223,69.2931403 L47.4264095,69.2931403 C46.4743262,72.5901695 43.3888711,74.8822219 39.9243458,74.8205128 M42.815858,5.63579337 L42.8775671,2.17126805 C42.921645,0.972348348 41.8461435,-0.0590752212 40.6824862,0.00263388122 C39.4747509,-0.0502596351 38.408065,0.928270417 38.3992494,2.23297715 L38.2934624,5.59171544 C23.4215687,6.7553728 11.5822366,19.0531154 11.3706625,34.0572428 L11.2296132,55.2058338 L0.677356652,65.4936227 C0.0602656276,66.0754514 -0.16893961,67.0980594 0.130790316,67.9443556 C0.430520242,68.7818363 1.22392299,69.3284026 2.17600628,69.3460338 L27.908702,69.3901117 C28.8431541,74.9880089 33.8415914,79.3605396 39.8802679,79.3340928 C45.8131573,79.351724 50.908566,75.0409024 51.9840675,69.4430053 L77.7255788,69.4870832 C78.9244985,69.5311611 79.9559221,68.446844 80,67.2479243 C79.9911844,66.5426774 79.6561921,65.9520332 79.1537037,65.5377006 L68.9805174,55.3028052 L69.1215668,34.1542143 C69.3331409,19.1500868 57.7053829,6.83471308 42.815858,5.63579337" id="Fill-429" fill="#e8e7e7"></path>
    </g>
</svg>