<?xml version="1.0" encoding="UTF-8"?>
<svg width="51px" height="51px" viewBox="0 0 51 51" version="1.1" xmlns="http://www.w3.org/2000/svg" xmlns:xlink="http://www.w3.org/1999/xlink">
    <!-- Generator: Sketch 41 (35326) - http://www.bohemiancoding.com/sketch -->
    <title>Artboard</title>
    <desc>Created with Sketch.</desc>
    <defs></defs>
    <g id="Page-1" stroke="none" stroke-width="1" fill="none" fill-rule="evenodd">
        <g id="Artboard" fill="#FFFFFF">
            <path d="M37.516852,27.5800568 L37.2746391,27.5021964 C37.1961758,27.4773473 37.0290147,27.4773473 36.928377,27.4773473 L14.0511985,27.4773473 C13.9727352,27.4773473 13.9045062,27.4889435 13.8413944,27.4988832 C13.7475795,27.512136 13.6605876,27.5237322 13.5735956,27.5237322 L13.4047289,27.5237322 L7.17201114,21.5201977 L8.70545756,20.0309103 C9.45938784,19.2986911 9.70160074,18.1821397 9.78006407,17.5807923 L9.81588429,17.3074525 L10.6380435,17.1053468 C12.8043138,16.5702635 17.312544,15.4570253 19.0557945,14.587308 C22.0834557,13.096364 24.4834102,11.6534615 25.271455,11.178016 L25.4897877,11.0471443 L25.9537448,11.3254538 C27.0198227,11.9698729 29.2423819,13.3084093 31.9169581,14.5839948 C33.6721487,15.4586819 38.185496,16.5735767 40.3551777,17.10866 L41.1653969,17.3074525 L41.2012171,17.5807923 C41.2796805,18.1821397 41.5218934,19.3003477 42.2741179,20.0309103 L43.8075644,21.5201977 L37.516852,27.5800568 Z M37.3428681,34.8823693 L13.6350017,34.8823693 L13.6350017,28.5226647 L37.3428681,28.5226647 L37.3428681,34.8823693 Z M35.6610236,36.6499662 C34.2657409,37.7184761 31.0896816,39.5125787 25.4897877,39.5125787 C19.8472507,39.5125787 16.724069,37.7168195 15.3646064,36.646653 L14.4537495,35.9293433 L36.5974664,35.9293433 L35.6610236,36.6499662 Z M44.9759857,21.882994 C45.1584982,21.6808883 45.1448524,21.3677901 44.9282254,21.1574013 L43.0212253,19.3053175 C42.3764614,18.6211399 42.2331805,17.3008261 42.2331805,16.8916448 C42.2331805,16.6547504 42.0728424,16.4543012 41.8408639,16.4046031 C41.6719971,16.4046031 34.5983572,14.658542 32.406501,13.5950019 C29.3754284,12.1222806 26.9123621,10.5716988 26.1038486,10.0614646 C26.0066223,10.0001702 25.9315704,9.95378531 25.8821044,9.92396643 C25.8445785,9.91734001 25.8036411,9.9107136 25.7661151,9.90243057 L25.7012976,9.92562304 L25.240752,9.96206833 C25.2117546,9.98029098 22.2710854,11.8456276 18.6242462,13.6397302 C16.4102156,14.7148665 9.3314585,16.3681578 9.09436277,16.3681578 C8.91526169,16.4178559 8.7702751,16.6680032 8.74639495,16.8899882 C8.74810068,16.8899882 8.70716329,18.5333398 7.95835018,19.2589326 L6.05135007,21.1093598 C5.83301732,21.3247183 5.83301732,21.6229071 6.05135007,21.8366091 L12.7139104,28.3553477 L12.6337413,28.5889289 C12.5825696,28.7413365 12.5603952,28.8672385 12.5603952,28.9252196 L12.5603952,34.4798144 C12.5603952,34.6123427 12.5979211,34.7630937 12.6388585,34.925441 L12.672973,35.0563127 L12.6218013,35.1938109 C12.5382208,35.3843204 12.5621009,35.6096186 12.6815016,35.7852187 C13.7339337,36.9050833 17.745798,40.5578961 25.4897877,40.5578961 C34.2128634,40.5578961 38.1564987,35.9078074 38.3202483,35.7090149 C38.4908207,35.5102223 38.4038288,35.2534487 38.3577742,35.1507392 L38.3014853,35.0231806 L38.3373055,34.8906523 C38.3782429,34.7349315 38.4191803,34.5742408 38.4191803,34.4334294 L38.4191803,28.9252196 C38.4191803,28.8490158 38.408946,28.7827516 38.3987116,28.7214573 C38.3833601,28.6320006 38.3731257,28.5458572 38.3731257,28.463027 L38.3731257,28.2957099 L44.9759857,21.882994 Z" id="Fill-393"></path>
        </g>
    </g>
</svg>