<?xml version="1.0" encoding="UTF-8" standalone="no"?>
<svg width="82px" height="82px" viewBox="0 0 82 82" version="1.1" xmlns="http://www.w3.org/2000/svg" xmlns:xlink="http://www.w3.org/1999/xlink">
    <!-- Generator: Sketch 39.1 (31720) - http://www.bohemiancoding.com/sketch -->
    <title>Group 3</title>
    <desc>Created with Sketch.</desc>
    <defs></defs>
    <g id="Page-1" stroke="none" stroke-width="1" fill="none" fill-rule="evenodd">
        <g id="Group-3" transform="translate(3.000000, 3.000000)">
            <path d="M41.8646667,56.14 C41.8646667,57.2466667 41.4713333,58.18 40.678,58.9133333 C39.9446667,59.7133333 39.0246667,60.1 37.918,60.1 C36.8113333,60.1 35.8646667,59.7133333 35.0713333,58.9133333 C34.338,58.18 33.9713333,57.2466667 33.9713333,56.14 C33.9713333,55.0266667 34.338,54.0733333 35.0713333,53.2866667 C35.8646667,52.54 36.8113333,52.1733333 37.918,52.1733333 C39.0246667,52.1733333 39.9446667,52.54 40.678,53.2866667 C41.4713333,54.0733333 41.8646667,55.0266667 41.8646667,56.14" id="Fill-431" fill="#FFFFFF"></path>
            <path d="M37.9953333,47.4066667 C36.2486667,47.4066667 34.8353333,45.9866667 34.8353333,44.2333333 L34.8353333,18.8866667 C34.8353333,17.1333333 36.2486667,15.7133333 37.9953333,15.7133333 C39.742,15.7133333 41.1553333,17.1333333 41.1553333,18.8866667 L41.1553333,44.2333333 C41.1553333,45.9866667 39.742,47.4066667 37.9953333,47.4066667" id="Fill-432" fill="#FFFFFF"></path>
            <path d="M75.8333333,37.9133333 C75.8333333,58.8533333 58.86,75.8266667 37.92,75.8266667 C16.9733333,75.8266667 0,58.8533333 0,37.9133333 C0,16.9733333 16.9733333,0 37.92,0 C58.86,0 75.8333333,16.9733333 75.8333333,37.9133333 L75.8333333,37.9133333 Z" id="Stroke-433" stroke="#FFFFFF" stroke-width="5" stroke-linejoin="round"></path>
        </g>
    </g>
</svg>