<?xml version="1.0" encoding="UTF-8"?>
<svg width="75px" height="75px" viewBox="0 0 75 75" version="1.1" xmlns="http://www.w3.org/2000/svg" xmlns:xlink="http://www.w3.org/1999/xlink">
    <!-- Generator: Sketch 41.2 (35397) - http://www.bohemiancoding.com/sketch -->
    <title>Slice</title>
    <desc>Created with Sketch.</desc>
    <defs></defs>
    <g id="Page-1" stroke="none" stroke-width="1" fill="none" fill-rule="evenodd">
        <path d="M70.5359566,49.4828488 C69.940192,49.8257349 68.9372502,50.3957831 68.8300983,51.6773199 C68.7315185,52.8045579 69.318711,53.4946162 69.7087439,53.9489403 C70.1502098,54.4675555 70.6088199,55.003315 70.3687996,57.0049126 C70.1202072,59.0579432 69.2758502,59.5765584 68.3029109,60.1766091 C67.6514273,60.5795002 66.9099361,61.0338243 66.4684703,61.8996117 C66.0484348,62.7182523 66.061293,63.3311612 66.0741513,63.9826448 C66.0870095,64.5526929 66.0998677,65.3327588 65.8641335,66.8457437 C65.5255335,69.0273565 62.9024548,70.2488882 60.7551306,70.8917996 C55.1146543,72.5933719 36.0716176,70.853225 35.9944682,70.853225 L20.466014,68.1229944 L20.466014,43.645213 L22.7933534,43.645213 C25.6564523,43.645213 26.200784,42.23938 29.7539412,33.0886072 C30.302559,31.669916 30.9326122,30.0454931 31.6655312,28.185336 C32.3384452,26.4623334 37.1945696,21.1861735 39.0975874,19.7203355 L39.6076305,19.3303025 C42.8436181,16.882953 44.7123473,14.9499326 45.4409803,3.83613693 C45.6681423,3.55754198 46.5939348,2.96606346 47.9140462,2.88462801 C48.8355526,2.82462294 50.1428059,3.01749637 51.102887,4.27760279 C53.0444795,6.82353207 53.3102162,12.0825476 51.6900794,16.0128795 C51.4243427,16.6686492 50.9700186,17.560153 50.4471173,18.5930974 C48.5055248,22.4077053 46.0924638,27.1609638 47.6997424,29.9640577 C47.9654792,30.43124 48.4840944,30.7269792 49.0027096,30.6884046 C55.2132341,30.4569564 65.8727057,30.4140957 68.0114577,31.275597 L68.5386451,31.4856147 C70.2102148,32.1328122 71.1317212,32.4885566 71.6974833,35.8616986 C72.0875162,38.2147544 71.4403187,38.7719443 70.7545465,39.3634229 C70.3002224,39.7534558 69.6744553,40.2892153 69.5544452,41.2064356 C69.378716,42.5136889 70.2059287,43.2980408 70.7502604,43.81237 C71.4060301,44.4381371 72.0317972,45.0253296 71.9717922,46.902631 C71.9203592,48.6942108 71.3074503,49.041383 70.5359566,49.4828488 L70.5359566,49.4828488 Z M2.87595715,69.2973793 L17.5857708,69.2973793 L17.5857708,41.9050661 L2.87595715,41.9050661 L2.87595715,69.2973793 Z M71.8646402,52.0416364 C71.8989289,52.020206 71.9332175,51.9987756 71.9332175,51.9987756 C72.9361593,51.4287275 74.7491696,50.3957831 74.8520354,46.9883525 C74.9463291,43.8209421 73.5576404,42.5094028 72.7304276,41.7250509 C72.6832808,41.6821901 72.6318479,41.6307572 72.5847011,41.5836103 C72.5847011,41.5836103 72.6147036,41.5578939 72.6318479,41.5450357 C73.5276378,40.7735419 75.1949215,39.3419925 74.5348657,35.3902302 C73.763372,30.7655539 71.9160732,29.7068931 69.5801616,28.7982449 L69.0915489,28.6096576 C66.0870095,27.3924119 54.0131327,27.6495765 50.0227957,27.7738727 C49.9927932,25.8451384 51.9129554,22.0648192 53.0101909,19.8960646 C53.5673808,18.8074012 54.0431353,17.8687505 54.3560188,17.105829 C56.387619,12.1768413 55.9718696,5.91059783 53.3916517,2.52888368 C51.3600515,-0.132769661 48.239788,-0.351359549 45.989598,0.325840496 C44.0008586,0.925891169 42.6636029,2.18171151 42.5778813,3.51468122 C41.9049674,13.9812794 40.3876964,15.1299478 37.8717696,17.0329657 L37.3360101,17.4401429 C35.5487163,18.8202595 29.9768172,24.5936041 28.9824475,27.1352474 C28.2538145,28.9954044 27.6194753,30.6241134 27.0708575,32.0470907 C24.1091788,39.6720203 23.6291383,40.7649698 22.7933534,40.7649698 L20.466014,40.7649698 L20.466014,40.4649444 C20.466014,39.6677343 19.8231026,39.0248228 19.0258924,39.0248228 L1.44012162,39.0248228 C0.642911435,39.0248228 0,39.6677343 0,40.4649444 L0,70.7375009 C0,71.5347111 0.642911435,72.1776225 1.44012162,72.1776225 L19.0258924,72.1776225 C19.7159507,72.1776225 20.2645684,71.6847237 20.406009,71.0375262 L35.6130074,73.7034657 C36.1401948,73.7506125 44.4208941,74.5049619 51.8229478,74.5049619 C55.7575658,74.5049619 59.4393052,74.2949442 61.5823434,73.6477467 C65.7955563,72.3876402 68.2600501,70.1888831 68.7100881,67.2872095 C68.984397,65.5256322 68.9672527,64.561265 68.9501084,63.9226397 C68.9415363,63.3868802 68.9458223,63.3697358 69.0272578,63.2154371 C69.1044072,63.0654244 69.4815819,62.8339763 69.8116097,62.6282447 C71.007425,61.8953256 72.8118631,60.7809458 73.2276125,57.3520848 C73.5876429,54.3475454 72.7304276,53.0531503 71.8989289,52.080211 L71.8646402,52.0416364 Z" id="up-wh" fill="#FFFFFF"></path>
    </g>
</svg>