<?xml version="1.0" encoding="UTF-8" standalone="no"?>
<svg width="86px" height="80px" viewBox="0 0 86 80" version="1.1" xmlns="http://www.w3.org/2000/svg" xmlns:xlink="http://www.w3.org/1999/xlink">
    <!-- Generator: Sketch 39.1 (31720) - http://www.bohemiancoding.com/sketch -->
    <title>Group</title>
    <desc>Created with Sketch.</desc>
    <defs></defs>
    <g id="Page-1" stroke="none" stroke-width="1" fill="none" fill-rule="evenodd">
        <g id="Group">
            <path d="M56,0 C54.92,0 53.84,0.114285714 52.7857143,0.337142857 C51.76,0.562857143 50.7542857,0.888571429 49.7942857,1.31428571 C47.38,2.38285714 45.2228571,4.09428571 43.5514286,6.26571429 C43.2257143,6.69142857 42.9685714,7.04857143 42.7485714,7.39142857 C40.9485714,10.1714286 40,13.42 40,16.7857143 C40,19.0514286 40.4228571,21.2542857 41.2657143,23.3257143 C41.6685714,24.3228571 42.1685714,25.2857143 42.7485714,26.18 C43.3257143,27.0742857 43.9857143,27.9114286 44.7057143,28.6628571 C45.1028571,29.0771429 45.5485714,29.4857143 46.1142857,29.9571429 C46.6542857,30.4057143 47.26,30.8371429 47.92,31.2428571 C50.3828571,32.7657143 53.1742857,33.5714286 56,33.5714286 C60.7742857,33.5714286 65.2685714,31.3485714 68.3257143,27.4714286 C68.6514286,27.0571429 68.9628571,26.6257143 69.2514286,26.18 C69.8285714,25.2857143 70.3285714,24.3257143 70.7342857,23.3257143 C71.5714286,21.2485714 71.9971429,19.0485714 71.9971429,16.7857143 C71.9971429,7.53142857 64.82,0 56,0" id="Fill-444" fill="#F86913"></path>
            <path d="M25.7142857,62.5428571 L85.3171429,62.5428571 L85.2,61.2885714 C85.0171429,59.3114286 84.5171429,57.3142857 83.7142857,55.3542857 C83.4714286,54.7628571 83.2,54.1742857 82.9085714,53.6142857 C82.5828571,52.98 82.2314286,52.3714286 81.8685714,51.8028571 C81.34,50.9771429 80.8057143,50.2342857 80.2342857,49.5314286 C79.7171429,48.9028571 79.1485714,48.28 78.4942857,47.6285714 C77.7257143,46.86 77.0257143,46.2257143 76.3571429,45.6885714 C73.2571429,43.1914286 69.6085714,41.3171429 65.5085714,40.12 L46.08,40 L45.6428571,40.0714286 C34.54,43.2342857 26.7257143,51.5685714 25.8314286,61.2914286 L25.7142857,62.5428571 Z" id="Fill-445" fill="#F86913"></path>
            <path d="M36.0028571,47.8571429 C32.6514286,47.8571429 29.3371429,46.9057143 26.42,45.1028571 C25.64,44.6228571 24.9285714,44.1114286 24.2885714,43.5828571 C23.6257143,43.0342857 23.1057143,42.5542857 22.64,42.0628571 C21.7885714,41.1714286 21.0171429,40.1914286 20.3485714,39.1571429 C19.6742857,38.12 19.0914286,36.9971429 18.6171429,35.8285714 C17.64,33.4142857 17.1428571,30.8542857 17.1428571,28.2142857 C17.1428571,24.2971429 18.2514286,20.5114286 20.3485714,17.2685714 C20.6142857,16.86 20.9085714,16.4457143 21.2914286,15.9514286 C23.2514286,13.4 25.7971429,11.3885714 28.6428571,10.1285714 C29.7742857,9.62571429 30.9657143,9.23714286 32.18,8.97428571 C33.4457143,8.70571429 34.7285714,8.57142857 36.0028571,8.57142857 C46.4,8.57142857 54.8571429,17.3828571 54.8571429,28.2142857 C54.8571429,30.8457143 54.3628571,33.4057143 53.3828571,35.8257143 C52.9028571,37.0085714 52.32,38.1285714 51.6485714,39.1628571 C51.32,39.6742857 50.9514286,40.1857143 50.5685714,40.6714286 C46.9685714,45.2371429 41.6571429,47.8571429 36.0028571,47.8571429" id="Fill-446" fill="#F86913"></path>
            <path d="M36,5.71428571 C34.5257143,5.71428571 33.0457143,5.87142857 31.6,6.17714286 C30.16,6.49142857 28.7828571,6.94 27.4771429,7.52 C24.1971429,8.97142857 21.2714286,11.2857143 19.0228571,14.2114286 C18.5857143,14.78 18.2457143,15.2571429 17.9485714,15.7171429 C15.5514286,19.4228571 14.2857143,23.7457143 14.2857143,28.2142857 C14.2857143,31.2228571 14.8514286,34.1485714 15.9685714,36.9028571 C16.5114286,38.2371429 17.1771429,39.5171429 17.9485714,40.7114286 C18.7228571,41.9057143 19.6057143,43.0285714 20.5771429,44.0428571 C21.1142857,44.6057143 21.7171429,45.1628571 22.4657143,45.7828571 C23.2114286,46.4028571 24.04,46.9942857 24.9228571,47.54 C28.2828571,49.6142857 32.1171429,50.7142857 36,50.7142857 C42.5371429,50.7142857 48.6657143,47.7 52.8142857,42.44 C53.2742857,41.8514286 53.6885714,41.2714286 54.0542857,40.7057143 C54.8257143,39.5085714 55.4885714,38.2314286 56.0285714,36.9057143 C57.1457143,34.1342857 57.7114286,31.2142857 57.7114286,28.2142857 C57.7114286,15.8085714 47.9714286,5.71428571 36,5.71428571 M36,11.4285714 C44.82,11.4285714 51.9971429,18.96 51.9971429,28.2142857 C51.9971429,30.4771429 51.5714286,32.6771429 50.7342857,34.7542857 C50.3285714,35.7542857 49.8285714,36.7142857 49.2514286,37.6085714 C48.9628571,38.0542857 48.6514286,38.4857143 48.3257143,38.9 C45.2685714,42.78 40.7742857,45 36,45 C33.1742857,45 30.3828571,44.1942857 27.92,42.6714286 C27.26,42.2657143 26.6542857,41.8342857 26.1142857,41.3857143 C25.5485714,40.9171429 25.1028571,40.5057143 24.7057143,40.0942857 C23.9857143,39.34 23.3257143,38.5057143 22.7485714,37.6085714 C22.1685714,36.7142857 21.6685714,35.7514286 21.2657143,34.7542857 C20.4228571,32.6828571 20,30.48 20,28.2142857 C20,24.8485714 20.9485714,21.6 22.7485714,18.82 C22.9685714,18.4771429 23.2257143,18.12 23.5514286,17.6942857 C25.2228571,15.5257143 27.38,13.8114286 29.7942857,12.7428571 C30.7542857,12.32 31.76,11.9914286 32.7857143,11.7685714 C33.84,11.5428571 34.92,11.4285714 36,11.4285714" id="Fill-447" fill="#FFFFFF"></path>
            <path d="M2.85714286,76.8314286 L3.26571429,72.4571429 C4.27142857,61.5571429 12.86,52.2542857 25.1428571,48.7571429 L25.2971429,48.7114286 L26.1342857,48.5714286 L46.2085714,48.6971429 L46.5914286,48.8085714 C51.0457143,50.1114286 55.0314286,52.1571429 58.4285714,54.8914286 C59.1714286,55.4885714 59.9457143,56.1885714 60.7971429,57.0428571 C61.52,57.7657143 62.1514286,58.4514286 62.7228571,59.1542857 C63.3657143,59.94 63.9685714,60.7742857 64.5571429,61.6971429 C64.9657143,62.34 65.3628571,63.0228571 65.7285714,63.7371429 C66.0542857,64.36 66.36,65.0257143 66.6342857,65.6971429 C67.5514286,67.92 68.1171429,70.1971429 68.3257143,72.4628571 L68.7342857,76.8314286 L2.85714286,76.8314286 Z" id="Fill-448" fill="#F86913"></path>
            <path d="M26.1828571,45.7142857 L25.7,45.7942857 L25.2628571,45.8657143 L24.9428571,45.92 L24.6342857,46.0085714 C11.2057143,49.8314286 1.80857143,60.1142857 0.694285714,72.2 L0.58,73.4457143 L0,79.6885714 L6.26857143,79.6885714 L65.8714286,79.6885714 L72.1371429,79.6885714 L71.56,73.4485714 L71.4457143,72.1971429 C71.2114286,69.6542857 70.5742857,67.1057143 69.5542857,64.6171429 C69.2428571,63.8542857 68.8971429,63.1114286 68.5342857,62.4085714 C68.1371429,61.64 67.6971429,60.8771429 67.2342857,60.1514286 C66.5914286,59.1457143 65.9314286,58.2285714 65.22,57.3542857 C64.5771429,56.5742857 63.8857143,55.8142857 63.0885714,55.02 C62.1685714,54.0971429 61.3171429,53.3257143 60.4857143,52.66 C56.8057143,49.6971429 52.4885714,47.4742857 47.6657143,46.0685714 L46.9,45.8428571 L46.1,45.8371429 L26.6714286,45.7171429 L26.1828571,45.7142857 Z M26.6371429,51.4314286 L46.0628571,51.5514286 C50.1628571,52.7485714 53.8142857,54.6228571 56.9114286,57.12 C57.5828571,57.6571429 58.28,58.2914286 59.0514286,59.06 C59.7028571,59.7114286 60.2714286,60.3342857 60.7885714,60.9628571 C61.36,61.6657143 61.8971429,62.4085714 62.4228571,63.2342857 C62.7857143,63.8028571 63.1371429,64.4114286 63.4628571,65.0457143 C63.7571429,65.6085714 64.0257143,66.1942857 64.2685714,66.7857143 C65.0714286,68.7457143 65.5742857,70.7428571 65.7542857,72.7228571 L65.8714286,73.9742857 L6.26857143,73.9742857 L6.38571429,72.7257143 C7.28285714,63 15.0971429,54.6657143 26.1971429,51.5057143 L26.6371429,51.4314286 L26.6371429,51.4314286 Z" id="Fill-449" fill="#FFFFFF"></path>
        </g>
    </g>
</svg>